<?xml version="1.0" encoding="utf-8"?>
<!-- Generator: Adobe Illustrator 24.3.0, SVG Export Plug-In . SVG Version: 6.00 Build 0)  -->
<svg version="1.1" xmlns="http://www.w3.org/2000/svg" xmlns:xlink="http://www.w3.org/1999/xlink" x="0px" y="0px"
	 viewBox="0 0 192 192" style="enable-background:new 0 0 192 192;" xml:space="preserve">
<style type="text/css">
	.st0{fill:url(#SVGID_1_);}
	.st1{display:none;}
	.st2{display:inline;opacity:0.15;}
	.st3{display:inline;fill:#FD0F79;}
	.st4{fill:url(#SVGID_2_);}
	.st5{fill:url(#SVGID_3_);}
</style>
<g id="Capa_1">
	<linearGradient id="SVGID_1_" gradientUnits="userSpaceOnUse" x1="0.4723" y1="96.0327" x2="191.5277" y2="96.0327">
		<stop  offset="0" style="stop-color:#84FF00"/>
		<stop  offset="0.3" style="stop-color:#D9FF00"/>
		<stop  offset="1" style="stop-color:#FFEC26"/>
	</linearGradient>
	<path class="st0" d="M157.5,191.6h-123c-18.8,0-34-15.2-34-34v-123c0-18.8,15.2-34,34-34h123c18.8,0,34,15.2,34,34v123
		C191.5,176.3,176.3,191.6,157.5,191.6z"/>
</g>
<g id="Capa_2" class="st1">
	<path class="st2" d="M141.9,81.6l-3.5-5.5c4.3-5.4,6.5-10,6.5-13.8c0-5.9-5.5-10.8-16.4-14.5c-11.1-3.7-19.9-7.7-26.5-12l0.3,105
		v6.9c0,3.9-0.2,6.6-0.6,8.1c-1.3,5.4-5.5,10-12.4,13.6c-7,3.7-16,5.5-27.2,5.5c-25.3,0-38-7.3-38-22c0-6.2,4-11.4,11.9-15.8
		c8-4.4,17.5-6.6,28.6-6.6c10,0,19.7,4,29,12.1V5.5l8.3-0.4c2.1,5.6,4.4,9.5,6.9,11.7c2.5,2.2,7.3,4.4,14.3,6.6
		c23.9,7.2,35.9,17,35.9,29.5C158.8,61.1,153.1,70.7,141.9,81.6z"/>
	<path class="st3" d="M77.1,73.4c2,0.8,3.9,2.3,5.6,4.3c1.3,1.7,2.3,3.7,2.7,6.1c0.3,1.6,0.4,4,0.4,7.1l-0.1,30.2H73V90.6
		c0-1.8-0.3-3.3-0.9-4.5c-1.1-2.2-3.2-3.3-6.1-3.3c-3.5,0-5.8,1.4-7.2,4.3c-0.7,1.5-1,3.4-1,5.5v28.5H45.2V92.6
		c0-2.8-0.3-4.9-0.9-6.2c-1.1-2.3-3.1-3.5-6.2-3.5c-3.6,0-6,1.2-7.2,3.5c-0.7,1.3-1,3.3-1,5.9v28.8H17.2V73.3h12.2v7
		c1.6-2.5,3-4.3,4.4-5.3c2.4-1.9,5.6-2.8,9.4-2.8c3.7,0,6.6,0.8,8.9,2.4c1.8,1.5,3.2,3.4,4.1,5.7c1.6-2.8,3.7-4.9,6.1-6.2
		c2.6-1.3,5.4-2,8.6-2C73,72.2,75.1,72.6,77.1,73.4z"/>
	<path class="st3" d="M90.6,56.4h13.5v53.1h32.3v11.6H90.6V56.4z"/>
	<path class="st3" d="M134.1,129.2l1.6,0.1c1.2,0.1,2.4,0,3.5-0.1c1.1-0.1,2-0.5,2.8-1c0.7-0.5,1.4-1.5,2-3.1
		c0.6-1.6,0.9-2.5,0.8-2.9l-17.6-49.9h13.9l10.4,35.3l9.9-35.3h13.3l-16.4,47c-3.2,9.1-5.7,14.7-7.5,16.9c-1.8,2.2-5.5,3.3-11.1,3.3
		c-1.1,0-2,0-2.7,0c-0.7,0-1.7-0.1-3-0.2V129.2z"/>
</g>
<g id="Capa_3">
	<linearGradient id="SVGID_2_" gradientUnits="userSpaceOnUse" x1="96" y1="191.5603" x2="96" y2="0.505">
		<stop  offset="0" style="stop-color:#000000;stop-opacity:0.96"/>
		<stop  offset="1.938651e-02" style="stop-color:#181818;stop-opacity:0.931"/>
		<stop  offset="6.221521e-02" style="stop-color:#484848;stop-opacity:0.8669"/>
		<stop  offset="0.1086" style="stop-color:#747474;stop-opacity:0.7975"/>
		<stop  offset="0.1576" style="stop-color:#999999;stop-opacity:0.7242"/>
		<stop  offset="0.2098" style="stop-color:#B9B9B9;stop-opacity:0.6461"/>
		<stop  offset="0.2662" style="stop-color:#D3D3D3;stop-opacity:0.5617"/>
		<stop  offset="0.3284" style="stop-color:#E6E6E6;stop-opacity:0.4687"/>
		<stop  offset="0.3995" style="stop-color:#F4F4F4;stop-opacity:0.3622"/>
		<stop  offset="0.4874" style="stop-color:#FDFDFD;stop-opacity:0.2308"/>
		<stop  offset="0.6416" style="stop-color:#FFFFFF;stop-opacity:0"/>
	</linearGradient>
	<path class="st4" d="M157.5,191.6h-123c-18.8,0-34-15.2-34-34v-123c0-18.8,15.2-34,34-34h123c18.8,0,34,15.2,34,34v123
		C191.5,176.3,176.3,191.6,157.5,191.6z"/>
</g>
<g id="Capa_2_copia">
	<path d="M137.5,94.8l-2.1-4.8c4.1-3.8,6.4-7.2,6.8-10.2c0.7-4.7-3.1-9.3-11.4-13.6c-8.4-4.3-15-8.5-19.8-12.8l-12.3,84.1l-0.8,5.5
		c-0.5,3.1-1,5.3-1.5,6.4c-1.7,4.2-5.6,7.3-11.6,9.4c-6,2.1-13.5,2.5-22.4,1.2c-20.3-3-29.6-10.4-27.8-22.2
		c0.7-4.9,4.5-8.7,11.4-11.2c6.9-2.6,14.8-3.2,23.7-1.9c8,1.2,15.3,5.6,21.8,13.2l16.4-110l6.7,0.7c1,4.7,2.4,8.1,4.1,10.2
		c1.7,2.1,5.3,4.4,10.6,7c18.3,8.6,26.7,17.9,25.2,27.9C153.5,80.4,147.8,87.4,137.5,94.8z"/>
</g>
<g id="Capa_3_copia">
	
		<linearGradient id="SVGID_3_" gradientUnits="userSpaceOnUse" x1="181.5647" y1="181.5321" x2="10.4353" y2="10.4026" gradientTransform="matrix(-1 0 0 -1 192 192)">
		<stop  offset="0" style="stop-color:#FFFFFF;stop-opacity:0.96"/>
		<stop  offset="6.387722e-02" style="stop-color:#FFFFFF;stop-opacity:0.8301"/>
		<stop  offset="0.472" style="stop-color:#FFFFFF;stop-opacity:0"/>
	</linearGradient>
	<path class="st5" d="M34.5,0.5h123c18.8,0,34,15.2,34,34v123c0,18.8-15.2,34-34,34h-123c-18.8,0-34-15.2-34-34l0-123
		C0.5,15.7,15.7,0.5,34.5,0.5z"/>
</g>
</svg>
